<svg id="Layer_1" data-name="Layer 1" xmlns="http://www.w3.org/2000/svg" width="400" height="400" viewBox="0 0 400 400"><defs><style>.cls-1{fill:#d77900;}.cls-2{fill:#636569;}</style></defs><title>pnnl-logo</title><path class="cls-1" d="M149.3,205.7c-.66,0-3.3-3-8.1-8.57L135,190c-3.28,3.63-3.76,4.34-3.81,4.48A9.79,9.79,0,0,1,124,198a6.46,6.46,0,0,1-4.15-1.41,6.11,6.11,0,0,1-2.18-4.39,9.86,9.86,0,0,1,2.67-7.23,67.14,67.14,0,0,1,5-5.63C119,172.49,112.62,166,106.4,160c-5.12,4.1-8.31,6.83-8.57,7.19a7.75,7.75,0,0,1-5,1.91,5.3,5.3,0,0,1-3.95-1.62,4.8,4.8,0,0,1-1.16-3.59,7.81,7.81,0,0,1,2.93-5.28,95.24,95.24,0,0,1,7.59-6.15c-5.13-4.6-10.35-9-15.52-13-2.65-2.2-5.06-4.12-7.34-5.86-7.35,3.2-11.71,5.32-12.05,5.58a6.85,6.85,0,0,1-2.92.66,4.63,4.63,0,0,1-4.18-2.28,3.93,3.93,0,0,1-.18-3.08A6.25,6.25,0,0,1,59.44,131a82.93,82.93,0,0,1,7.81-3.53c-6.47-4.74-13.32-9.4-20.92-14.24H44.47c-11.63,0-19.72.47-20.26.58H24A5.15,5.15,0,0,1,18.87,109a4.89,4.89,0,0,1,1.2-3.64,5.14,5.14,0,0,1,3.63-1.76c.28,0,2.59-.14,6.47-.2-15.51-9-27-14.39-27.66-14.52C0,87.7-.67,83.89.9,80.18c1.18-2.8,3.68-4.76,6.07-4.76a4.15,4.15,0,0,1,1.77.39c1,.25,21.77,10.87,46.19,28.13a388.39,388.39,0,0,1,58.57,7.2,374.56,374.56,0,0,1,48.06-11c8.78-1.66,18.15-2.93,27.76-3.9,4.58-2.24,9.14-4.36,13.51-6.29A444.29,444.29,0,0,1,266.55,65.8c63.22-39.17,127.63-61.25,133-61.25.18,0,.42,0,.46.19.2.42-2.93,1.87-12.69,6.4-18.43,8.51-52.71,24.35-89.76,46.51C311.11,54.58,321.33,53,324.45,53c.89,0,1,.13,1,.26.09.33-1.66.84-9.88,3.14-7.16,2-18,5-30.84,9.11-10,6.28-19.52,12.69-28.25,19-4.76,3.22-9.76,6.73-14.89,10.45,13.92.64,23.18,1.95,23.7,2.62a.24.24,0,0,1,0,.12c0,.22-.74.29-5.64.29h-5c-4.48,0-10.51,0-17.58.21-15.84,11.71-32.21,25.06-48.56,39.56,9.69,5.25,15.87,9.59,16,10.61a.19.19,0,0,1,0,.19h-.09a32,32,0,0,1-4.5-1.95c-3.21-1.51-8.07-3.81-14.17-6.45-24.26,21.79-41.32,39.66-47.54,46.34,7.38,10.36,11.5,17.85,11.23,19a.32.32,0,0,1-.12.2Zm-36.22-50.77c5.79,6.37,11.41,13,16.69,19.84,7.13-7.28,22.09-22.1,42.81-40-6.91-2.69-13.75-5.08-20.35-7.12-16.88,10.84-30.55,20.82-39.15,27.33ZM87.64,130l1.78,1.63c5.44,4.75,10.9,9.93,16.23,15.41,7.31-5.43,19.22-13.83,33.92-23.05a210.33,210.33,0,0,0-22.08-4.55c-.51-.11-1-.21-1.55-.29l-1.17-.22c-9.56,3.1-19,6.49-28.18,10.12.34.35.7.62,1,1Zm70.54-6.19c6.06,2.34,12.17,5,18.16,7.81C190,119.92,203.67,109,217,99.17c-6.23.41-12.28,1-18,1.56C185.94,107.28,172.18,115,158.18,123.82Zm-90-10c3.9,3,7.51,5.93,11,8.88,5.85-2.26,11.89-4.41,17.82-6.39-9.18-1.14-18.89-2-28.83-2.49Zm60.82.78c5.7,1.4,11.62,3.11,17.57,5.07,8.74-5.36,17.74-10.51,26.72-15.3-3.46.62-7.06,1.34-10.67,2.13C152.21,108.46,140.89,111.18,129,114.6Zm116.05-35c-12.29,4.88-23.84,10-34.35,15.25,4.34-.16,8.54-.24,12.49-.27,7.07-5.1,14.43-10.15,21.86-15Z"/><path class="cls-2" d="M58.3,335.53A22.32,22.32,0,1,0,80.61,313,22.32,22.32,0,0,0,58.3,335.53Zm11.23,0c0-7.31,4.55-12.43,11.08-12.43s11.06,5.12,11.06,12.43S87.14,348,80.61,348,69.53,342.85,69.53,335.53Z"/><polygon class="cls-2" points="41.07 300.24 41.07 337.86 12.05 300.24 0 300.24 0 356.6 11.61 356.6 11.61 317.54 42.04 356.6 53.51 356.6 53.51 300.24 41.07 300.24"/><path class="cls-2" d="M118.23,318.67v-4.24H107.49v42.18h10.74V338.15c.07-3.09-.23-13.22,6.32-14a11.67,11.67,0,0,1,6.37.75V314.18a24.84,24.84,0,0,0-4.27-.77C121.8,313.38,119.73,316.38,118.23,318.67Z"/><path class="cls-2" d="M142.53,304.48v9.76H135.7V325h6.83v20.26c0,8.79,4.32,12.69,14,12.69a60.27,60.27,0,0,0,9.19-.84l1.3-.19V346.53l-1.24.37a31.31,31.31,0,0,1-7.26,1.08c-3.62,0-5.21-1.5-5.21-4.88V325h10l3.27-10.74H153.28V301.18Z"/><path class="cls-2" d="M171.67,297v59.65h10.74V328.3c2.11-2.7,4.79-5.26,11.08-5.26,4.43,0,7.18,1.71,7.18,10.26v23.29h10.74V329.9c0-11-5.47-16.79-15.88-16.79-6.49,0-10.44,2.36-13.12,4.94V293.68Z"/><path class="cls-2" d="M270.14,315.2s-8,21.33-9.47,25.54c-1.5-4.21-9.41-25.54-9.41-25.54H242.1s-7.76,21.24-9.26,25.49c-1.49-4.25-9.3-25.49-9.3-25.49H212.18L228,356.61h9.65s7.54-21.79,9-26.13l9,26.13h9.76L281.1,315.2Z"/><path class="cls-2" d="M347,329.8c-5.32-.77-8.1-1.25-8.1-3.4,0-1.78,2-3.84,7.56-3.84,5.15,0,8.09,1.91,9.86,3.69l8.32-6.16c-6.12-6.29-14.38-7-18-7-14.93,0-18.92,8.66-18.92,13.78,0,8,5.44,12.23,18.24,13.94,9.46,1.36,10.64,1.66,10.64,3.69,0,2.93-4.29,4-8,4-5.86,0-10.08-2-12.61-5.72l-8.5,6.35c3.21,4.08,8,8.88,20.26,8.88,12.69,0,20-5.17,20-14.19C367.76,332.58,356.69,331.1,347,329.8Z"/><path class="cls-2" d="M374.26,304.48v9.76h-6.83V325h6.83v20.26c0,8.79,4.31,12.69,14,12.69a61.57,61.57,0,0,0,9.19-.84l1.27-.19V346.53l-1.23.37a31.15,31.15,0,0,1-7.25,1.08c-3.59,0-5.21-1.5-5.21-4.88V325h11.63l1.64-10.74H385V301.18Z"/><path class="cls-2" d="M302.38,313.2c-15.26,0-22.11,11.19-22.11,22.32C280.27,349,289.41,358,303,358c11.09,0,16.53-6,18.81-9.58l-9.76-5.17c-1,2.33-4,5-9.32,5-6.08-.26-9.71-3.35-11-8.93H324.6v-1.18C324.57,322.43,316.5,313.32,302.38,313.2ZM292.2,329.89c1.53-4.56,4.75-6.92,10-6.92,5.69,0,9,2.28,10.37,6.92Z"/><path class="cls-2" d="M0,230v56.37H12.15V265.25h9.77c8.5,0,24.26,0,24.26-17.57S30.42,230,21.92,230Zm24.2,11.16c6.71,0,9.91,1,9.91,6.44s-3.2,6.54-9.91,6.54h-12v-13Z"/><path class="cls-2" d="M88.77,284.82c-.24-.45-.61-1.8-.61-6v-20c0-5.17,0-16-19.71-16-9.91,0-16.48,3.45-19.23,10l10.51,2.57c.83-1.38,2.93-3.07,8.79-3.07s8.91,1.41,8.91,4.2v.84C67.29,258,46,259.71,46,274.55c0,10.35,9.88,13.13,15.72,13.13a31.07,31.07,0,0,0,15.84-4.74c.12,1,.24,1.84.39,2.56l.16.81H89.47ZM77.43,273.66c-3.7,2.29-8.58,4.78-14.44,4.78A5.9,5.9,0,0,1,58.58,277a4.1,4.1,0,0,1-1-2.93v-.15c0-2.1,1-4.26,7.34-5.86a67.12,67.12,0,0,1,12.53-1.88Z"/><path class="cls-2" d="M126.25,271.93c-1.32,3-4.94,5.78-10.88,5.78-8.39,0-11.38-6.79-11.38-13.11a11.72,11.72,0,0,1,11.6-11.83h.49c5.34,0,8.51,2.81,9.76,5.27l10.48-2.76c-2.23-6.69-9-12.54-20.78-12.48-14.69.09-22.45,10.83-22.45,21.41,0,14.9,8.46,23.43,23.19,23.43,11.23,0,17.68-6.44,20.37-13Z"/><path class="cls-2" d="M141.29,228.62v10.26H152V228.62Zm0,15.54v42.17H152V244.16Z"/><path class="cls-2" d="M175,243.76a5.2,5.2,0,0,1,1.22-3.65c1.58-2.09,7.4-2.46,11.35-2.05l3.09-9.6-.75-.13a64,64,0,0,0-9.69-.46h-.11c-2.15,0-8.66.75-12.64,4.93a12.69,12.69,0,0,0-3.21,9.09v3.61h-7.09v10h7.09v30.87H175V255.46h10.46l3.24-10H175Z"/><rect class="cls-2" x="195.25" y="244.15" width="10.75" height="42.17"/><rect class="cls-2" x="195.25" y="228.61" width="10.75" height="10.26"/><path class="cls-2" d="M244.31,271.93c-1.31,3-4.88,5.78-10.88,5.78-8.4,0-11.39-6.79-11.39-13.11a11.72,11.72,0,0,1,11.6-11.83h.5c5.35,0,8.53,2.82,9.76,5.27l10.44-2.72c-2.23-6.72-9-12.58-20.78-12.52-14.71.09-22.45,10.83-22.45,21.41,0,14.9,8.44,23.43,23.2,23.43,11.23,0,17.67-6.44,20.36-13Z"/><path class="cls-2" d="M0,374.53H3.74L14.6,389V374.53h3.71v20.56H14.6L3.74,380.63v14.46H0Z"/><path class="cls-2" d="M38.6,391.38H28.66l-1.55,3.71H23l8.58-20.56H35.7l8.58,20.56H40.15Zm-1.35-3.24-3.62-8.64L30,388.14Z"/><path class="cls-2" d="M50.51,377.93H43.92v-3.4H60.8v3.4H54.22v17.16H50.51Z"/><path class="cls-2" d="M66.16,374.53h3.71v20.56H66.16Z"/><path class="cls-2" d="M75,384.79a10.74,10.74,0,1,1,10.82,10.66h0A10.84,10.84,0,0,1,75,384.79Zm17.74,0A7,7,0,1,0,85.82,392,7.16,7.16,0,0,0,92.76,384.79Z"/><path class="cls-2" d="M101.25,374.53H105L115.82,389V374.53h3.71v20.56h-3.71L105,380.63v14.46h-3.74Z"/><path class="cls-2" d="M139.4,391.38h-9.91l-1.56,3.71h-4.16l8.59-20.56h4.16l8.59,20.56H141Zm-1.35-3.24-3.62-8.64-3.62,8.64Z"/><path class="cls-2" d="M164.39,391.67v3.42H150.12V374.53h3.71v17.14Z"/><path class="cls-2" d="M197.09,391.67v3.42H182.82V374.53h3.71v17.14Z"/><path class="cls-2" d="M217.46,391.38h-9.93L206,395.09h-4.15l8.58-20.56h4.16l8.59,20.56H219Zm-1.34-3.24-3.65-8.64-3.63,8.64Z"/><path class="cls-2" d="M227.48,374.53h10.08c3.57,0,6.09,2.15,6.09,5.14a5,5,0,0,1-2.93,4.55c2.36,1.14,3.77,3,3.77,5.27,0,3.29-2.72,5.6-6.55,5.6H227.48Zm9.19,8.4c1.82,0,3.14-1.07,3.14-2.57s-1.32-2.6-3.14-2.6H231.2v5.17Zm.54,8.92c2,0,3.47-1.23,3.47-2.92s-1.44-2.93-3.47-2.93h-6v5.85Z"/><path class="cls-2" d="M248.07,384.79A10.79,10.79,0,1,1,259,395.45h-.12A10.85,10.85,0,0,1,248.07,384.79Zm17.74,0a7,7,0,1,0-6.95,7.24A7.16,7.16,0,0,0,265.81,384.79Z"/><path class="cls-2" d="M286.25,395.09l-4.88-6.92h-4v6.92h-3.74V374.53h9c4.4,0,7.69,2.81,7.69,6.83a6.67,6.67,0,0,1-5,6.43l5.14,7.31Zm-8.79-10.36h4.78c2.55,0,4.31-1.29,4.31-3.38s-1.76-3.38-4.31-3.38h-4.78Z"/><path class="cls-2" d="M309.58,391.38h-9.93l-1.56,3.71h-4.16l8.59-20.56h4.16l8.59,20.56h-4.13Zm-1.35-3.24-3.61-8.64L301,388.14Z"/><path class="cls-2" d="M321.49,377.93h-6.58v-3.4h16.88v3.4H325.2v17.16h-3.71Z"/><path class="cls-2" d="M333.22,384.79A10.74,10.74,0,1,1,344,395.45h0A10.84,10.84,0,0,1,333.22,384.79Zm17.74,0A7,7,0,1,0,344,392,7.16,7.16,0,0,0,351,384.79Z"/><path class="cls-2" d="M372,395.09l-4.88-6.92h-4v6.92h-3.74V374.53h8.95c4.4,0,7.69,2.81,7.69,6.83a6.67,6.67,0,0,1-5,6.43l5.14,7.31Zm-8.78-10.36H368c2.54,0,4.31-1.29,4.31-3.38S370.54,378,368,378h-4.79Z"/><path class="cls-2" d="M387,387.39l-8.14-12.83h4.43l5.65,9.3,5.75-9.3h4.22l-8.11,12.83v7.72H387Z"/></svg>